<?xml version="1.0" encoding="UTF-8"?>
<svg id="_Слой_1" data-name="Слой_1" xmlns="http://www.w3.org/2000/svg" version="1.1" viewBox="0 0 675 600">
  <!-- Generator: Adobe Illustrator 29.8.3, SVG Export Plug-In . SVG Version: 2.1.1 Build 3)  -->
  <g>
    <path d="M524.98,365.45c-14-18.37-21.63-38.44-25.6-59.5l.19,12.27-10.34-9.35.41,25.24,10.35,9.35.2,12.49-10.35-9.35-.2-12.49-20.91-18.89.2,12.5-10.35-9.35-.2-12.5,10.35,9.35-.42-25.24-10.36-9.35-.2-12.49,10.36,9.35.2,12.49,20.92,18.89-.22-12.49,10.31,9.31c-10.17-54.24,3.77-114.92-4.56-169.54C485.43,63.79,421.51,5.66,349.91.43h-.31c-83.84-6.17-161.85,56.56-170.07,141.95-6.4,52.36,5.78,106.28-2.55,158.39l10.1-9.13-.2,12.5,20.92-18.91.21-12.48,10.35-9.35-.2,12.48-10.36,9.35-.42,25.25,10.36-9.35-.21,12.48-10.35,9.35.2-12.48-20.9,18.89-.21,12.48-10.35,9.35.2-12.48,10.36-9.35.4-25.23-10.35,9.33.18-11.14c-.43,2.64-.91,5.28-1.47,7.93-2.2,10.32-5.52,20.93-10.3,30.66-8.62,17.36-20.97,31.8-30.74,48.47-37.48,61.8-63.49,133.35-67.57,206.14-.01.52,0,1.01.02,1.43.07,3.4,1.01,2.82,2.78,2.87,39.44-.07,109.78-.07,186.9-.03l-8.14-8.22,16.05-16.21-23.35-23.62-16.05,16.22-16.04-16.22,16.04-16.21,16.05,16.21,23.35-23.61-15.74-15.9-7.61,7.72-7.94-8.03,7.94-8.03,7.61,7.72,15.74-15.9-7.94-8.03,7.94-8.03,7.92,8.03-7.92,8.03,15.72,15.9,7.62-7.72,7.94,8.03-7.94,8.03-7.62-7.72-15.72,15.9,23.34,23.61,47.2-47.71-23.35-23.61,23.35-23.61,23.34,23.61-23.34,23.61,47.19,47.71,23.35-23.61-15.74-15.9-7.61,7.72-7.94-8.03,7.94-8.03,7.61,7.72,15.74-15.9-7.94-8.03,7.94-8.03,7.92,8.03-7.92,8.03,15.72,15.9,7.62-7.72,7.94,8.03-7.94,8.03-7.62-7.72-15.72,15.9,23.34,23.61-23.34,23.62,16.03,16.21-8.22,8.29c98.99.07,181.76.08,193.67-.04,1.25-.02,1.4-.52,1.58-2.58-4.36-82.63-36.11-164.83-83.4-231.8ZM238.64,412.67l-7.92-8.03-16.05,16.23,7.94,8.01-7.94,8.03-7.92-8.03,7.92-8.01-16.04-16.23-7.94,8.03-7.92-8.03,7.92-8.01,7.94,8.01,16.04-16.21-7.92-8.03,7.92-8.01,7.94,8.01-7.94,8.03,16.05,16.21,7.92-8.01,7.94,8.01-7.94,8.03ZM302.83,488.46l-7.94-8.03,7.94-8.03,7.94,8.03-7.94,8.03ZM334.78,456.6l-7.94-8.03,7.94-8.01,7.92,8.01-7.92,8.03ZM366.71,488.46l-7.94-8.03,7.94-8.03,7.94,8.03-7.94,8.03ZM401.63,280.93c-7.47,4.49-13.92,2.95-22.51.37-9.28-2.11-19.4-1.15-27.87,3.3-12.75,7.67-15.69,15.03-28.96,3.73-6.05-5-13.63-7.57-21.47-7.96-19.58.08-22.77,4.75-40.52-8.46-58.8-42.53-75.68-129.68-34.16-190.11,33.94-50.86,101.09-73.62,159.19-51.57l.28.11c54.46,20.95,91.26,76.59,88.46,135.69-3.13,46.05-30.66,94.5-72.44,114.9ZM478.97,412.67l-7.94-8.03-16.03,16.23,7.94,8.01-7.94,8.03-7.94-8.03,7.94-8.01-16.04-16.23-7.94,8.03-7.94-8.03,7.94-8.01,7.94,8.01,16.04-16.21-7.94-8.03,7.94-8.01,7.94,8.01-7.94,8.03,16.03,16.21,7.94-8.01,7.94,8.01-7.94,8.03Z"/>
    <path d="M405.3,575.49l-16.05,16.21,8.2,8.3c-40.8-.03-83.79-.05-125.34-.08l8.14-8.22-16.04-16.21,23.35-23.61,47.19,47.71,47.19-47.71,23.35,23.61Z"/>
  </g>
  <g>
    <path d="M324.58,73.75c1.91,3.68.65,10.02,1.19,14.45.39,7.54.94,15.4,5.31,21.77,3.38,5,9.07,8.09,11.63,13.68,2.65,4.88,1.72,9.2,1.85,14.84-.37,26.58.26,95.83-.64,107.55-1.32,1.8-5.7,2.43-8.15,2.75-5.12.54-10.91.6-16.4.75-8.31-.3-28.31,1.69-33.42-3.62-2.2-12.74-.04-102.44-.75-116.64.04-2.08.32-3.31,1.54-5.83,3.5-7.02,12.03-10.45,14.39-18.33,2.72-7.4,2.74-17.47,2.9-25.75.13-2.37-.17-5.28,2.15-6.53,1.54-.98,5.71-.82,8.82-.84,3.07.05,7.72-.44,9.52,1.65l.08.1ZM337.27,144.71c-2.2-.65-4.36-.11-9.17-.28-5.53,0-12.87,0-19.41,0-6.76.15-11.46-.32-16.05.21-.69.3-.6,1.09-.63,1.83,0,9.13-.02,59.9,0,67.91.02.44.05.76.15,1,0,1.04,4.51.6,6.2.69,9.48,0,31.17.01,36.98-.01.81-.05,1.81.1,2.22-.64.51-14.96.04-51.1.15-69.69-.03-.43-.09-.77-.4-1.01l-.04-.02Z"/>
    <path d="M353.19,248.1c4.57-2.61,11.65-2.23,15.75-5.22,3.47-2.34,4.36-6.55,4.71-10.51.54-6.12.51-13,.03-18.78-.67-7.55-2.26-11.86-9.57-14.93-18.23-8.04-15.55-26.41-10.55-43.29,1-3.22,1.41-7.05,5.54-7.1,3.09-.14,6.55.06,11.14.05,5.63.07,11.36.12,16.32.18,3.81.04,6.18-.07,7.53,1.26,1.76,1.83,2.21,4.97,2.95,7.48,2.7,11.01,5.82,24.05-.45,33.11-2.36,3.53-6.06,5.83-9.83,7.76-8.8,4.19-9.69,6.71-10.1,16.16-.26,4.75-.3,10.06-.21,14,.23,5.14.11,11.54,4.84,14.73,3.51,2.26,8.27,2.5,12.11,3.69,2.65.75,3.13,1.51,2.11,1.88-10.46.86-30.04.05-40.28.3-.72,0-2.71-.05-2.09-.73l.04-.04ZM397.56,169.97c-.24-.67-.79-.92-1.45-.98-10.67-.13-33.67-.01-41-.05-1.1.02-2.25,0-2.58,1.27-.54,2.73-.29,7.06-.26,10.13.14,5.65,2.98,10.64,7.28,14.11,2.68,2.04,6.19,3.47,9.21,5.42,1.93,1.2,4,2.71,6.32,2.68,1.84,0,3.63-1.01,5.2-1.98,3.99-2.59,8.55-4.45,11.91-7.7,3.73-3.73,5.54-8.04,5.68-13.61.03-2.8.28-6.79-.29-9.19l-.03-.09Z"/>
    <path d="M326.89,69.16c-.53,1.39-3.85,1.39-6.23,1.34-4.95-.11-10.79.24-15.72-.17-3.5-.58-2.44-3.79-2.9-7.3-.35-3.31-1.04-7-.1-10.22,1.15-3.03,3.27-2.85,6.77-2.89,5.09.22,11.2-.5,16.17.4,3.45,1.33,2.9,5.67,2.95,9.79-.3,2.92.17,6.25-.88,8.95l-.06.1Z"/>
  </g>
</svg>