<?xml version="1.0" encoding="UTF-8"?>
<svg id="_Слой_1" data-name="Слой_1" xmlns="http://www.w3.org/2000/svg" version="1.1" viewBox="0 0 140 20">
  <!-- Generator: Adobe Illustrator 29.8.3, SVG Export Plug-In . SVG Version: 2.1.1 Build 3)  -->
  <defs>
    <style>
      .st0 {
        fill: #00535e;
      }
    </style>
  </defs>
  <path class="st0" d="M90.02-.02l-10,10.01,10,10.01,10-10.01L90.02-.02Z"/>
  <path class="st0" d="M110.01-.02l-10,10.01,10,10.01,10-10.01L110.01-.02Z"/>
  <path class="st0" d="M130,0l-10,10.01,10,10.01,10-10.01L130,0Z"/>
  <path class="st0" d="M10-.01L0,9.99l10,10.01,10-10.01L10-.01Z"/>
  <path class="st0" d="M29.99,0l-10,10.01,10,10.01,10-10.01L29.99,0Z"/>
  <path class="st0" d="M49.98,0l-10,10.01,10,10.01,10-10.01L49.98,0Z"/>
  <path class="st0" d="M70,0l-10,10.01,10,10.01,10-10.01L70,0Z"/>
</svg>