<?xml version="1.0" encoding="UTF-8"?>
<svg id="_Слой_1" data-name="Слой_1" xmlns="http://www.w3.org/2000/svg" version="1.1" viewBox="0 0 90 140">
  <!-- Generator: Adobe Illustrator 29.8.3, SVG Export Plug-In . SVG Version: 2.1.1 Build 3)  -->
  <path d="M39.83.37c22.47-3.04,39.98,13.2,38.07,35.89-.48,5.64-3.71,10.62-4.32,16.07-2.47,22.07,18.35,34.1,10.31,61.28-11.68,39.48-79.36,34.17-79.63-12.57-.1-17.9,15.19-31.95,12.35-50.16-1.34-8.62-4.55-12.56-3.54-22.66C14.34,15.49,27.13,2.09,39.83.37ZM66.22,27.85c-8.93.07-20.31-1.98-26.98-8.34-1.65-1.57-2.56-4.17-4.33-5.49.49,7.37-3.82,13.89-10.81,16.13-2.18,33.51,46.15,30.19,42.12-2.3ZM19.98,89.02c-3.1.52-7.31-.37-10.56,0,.24.9,4.15,1.37,4.84,1.39,13.88.33,27.13-11.62,30.48-24.7,4.8,14.63,19.12,27.33,35.32,24.03l-10.23-1.05c-7.84-2.11-13.78-7.1-18.47-13.57-.81-1.11-6.45-11.25-6.97-10.86-3.13,9.03-14.66,23.13-24.4,24.76Z"/>
  <path d="M50.2,42.42c-.65,7.84-9.35,7.98-10.2,0h10.2Z"/>
</svg>