<?xml version="1.0" encoding="UTF-8"?>
<svg id="_Слой_1" data-name="Слой_1" xmlns="http://www.w3.org/2000/svg" version="1.1" viewBox="0 0 90 140">
  <!-- Generator: Adobe Illustrator 29.8.3, SVG Export Plug-In . SVG Version: 2.1.1 Build 3)  -->
  <path d="M42.91.15c20.42-1.84,38.12,18.18,33.64,38.28-.88,3.94-2.56,7.59-3.27,11.55-.58,3.11-.59,6.47-.19,9.53.71,5.5,2.69,10.45,4.88,15.39,6.1,12.76,10.46,24.72,5.85,39.08-17.07,47.08-96.64,25.84-76.24-28.94,4.64-12.01,12.55-22.89,9.2-36.86-1.09-4.74-3.28-9.19-3.61-14.11C11.83,16.99,25.85,1.3,42.76.16h.15ZM61.95,17.29c.05-.13-.21-.35-.73-.61-1.76-.84-4.03-1.25-5.95-1.78-3.87-.98-7.25-2.92-10.93-4.25-.6-.19-1.67-.64-2.03-.42.14.57,1.36,1.12,1.95,1.52,4.49,2.57,9.84,4.26,14.99,5.37.77.13,2.11.52,2.69.2v-.03ZM27.41,11.67c-1.86-1.87-5.17.19-4.69,2.65.27,1.54,2.27,2.91,3.79,2.14,1.71-.78,2.39-3.31,1.01-4.7l-.1-.1ZM65.36,22.76c-.34-.43-1.8-.57-2.58-.65-9.12-.53-17.36-5.48-24.88-10.56-1.05-.59-1.36-.45-.61.43,5.62,5.48,15.32,9.55,23.2,11.36,1.35.27,2.97.41,4.24.02.51-.16.75-.37.66-.56l-.02-.03ZM24.19,26.33c4.05-1.98,8.26-7.06,8.66-11.69,0-.85-.36-.89-.82-.2-1.33,2.29-1.74,5.02-3.74,6.97-1.26,1.38-2.94,2.76-4,4.26-.28.41-.32.64-.14.67h.04ZM36.22,16.29c-1.57-.27-1.86,4.11-3.34,6.5-1.22,2.34-3.18,4.25-5.32,5.74-2.04,1.43-3.57,2.09-4.13,3.6-.9,2.73.14,6.09,1.38,9.05,2.09,4.76,5.23,8.56,9.69,11.03,14.17,8.08,32.04-2.12,32.84-18.44.31-3.87-1.49-5.78-5.26-5.83-8.48-.53-16.1-2.8-22.42-8.52-1.12-.96-2.08-2.5-3.38-3.11l-.07-.02ZM83.62,91.58c-.64-.21-2.55.13-3.56.28-15.17,2.62-28.66-9.68-33.88-23.64-.6-1.25-1.03-2.19-1.97-1.27-1.54,1.99-2.56,4.78-3.77,6.94-.66,1.33-1.12,2.44-1.16,2.88-.02.17.02.25.12.22,1.81-1.46,3.02-4.9,4.36-6.54.97-1.33,1.78-.83,2.51.69,5.87,13.59,21.42,26.18,36.34,21.31.83-.35,1.38-.63,1.06-.85h-.04ZM45.44,72.63c-1.2-.23-1.88,2.65-2.36,3.57-3.7,9.55-11.97,15.58-21.7,18.19-3.24.66-5.04,2.84-4.59,6.33,4.1,38.29,59.09,33.73,56.26-3.93-.7-1.54-2.34-2.16-3.92-2.54-9.77-2.27-18.89-9.16-22.11-18.8-.34-.91-.86-2.43-1.52-2.8l-.05-.02ZM34.31,84.66c-1.19.17-3.01,1.89-4.23,2.58-6.63,4.46-14.56,5.69-22.23,3.86-1.42-.23-1.57.08-.32.72,7.89,3.68,21.52-.01,26.8-7.14v-.02Z"/>
  <path d="M30.36,97.65c2.31,1.22,5.74,3.07,4.94,6.06-.18.87-.49,1.71-.74,2.56-.49,1.86-1.15,3.97-3.29,4.04-.86.08-1.75.02-2.62.05-1.82,0-3.43.54-4.64-.87-1.16-1.43-1.71-3.41-2.12-5.17-.56-2.46.24-3.97,2.62-5.36,1.76-1.02,3.99-2.1,5.74-1.35l.11.04ZM26.3,106.12c2.08,2.42,6.77-.96,4.14-3.59-2.21-2.31-5.88.95-4.22,3.48l.08.11Z"/>
  <path d="M57.06,109.6c-1.21-1.51-1.58-3.88-2.19-5.76-1.05-3.28,2.85-4.82,5.11-6.11,1.76-.92,3.52.15,4.96,1.18,1.38.95,3.14,1.68,3.63,3.26.47,1.84-.38,3.81-1.14,5.65-.97,2.2-2.25,2.98-4.58,2.7-1.87-.22-4.2.56-5.7-.81l-.09-.09ZM60.92,101.96c-2.92.99-2.22,4.69.7,5.02,3.88.32,3.28-6.18-.55-5.06l-.15.04Z"/>
  <path d="M41.58,110.44c1.5-.89,2.73-2.06,4.41-1.54,1.18.34,2.55,1.36,3.69,2.26,1.38,1.06,2.18,2.37,1.9,4.27-.43,1.98-.5,4.89-2.52,5.92-.63.27-1.35.34-2.05.4-2.79.09-6.27.66-7.45-2.29-1.65-4.35-3.13-6.46,1.91-8.96l.11-.07ZM43.07,113.6c-2.42,2.08.96,6.77,3.59,4.14,2.31-2.21-.95-5.88-3.48-4.22l-.11.08Z"/>
</svg>