<?xml version="1.0" encoding="UTF-8"?>
<svg id="_Слой_1" data-name="Слой_1" xmlns="http://www.w3.org/2000/svg" version="1.1" viewBox="0 0 90 140">
  <!-- Generator: Adobe Illustrator 29.8.3, SVG Export Plug-In . SVG Version: 2.1.1 Build 3)  -->
  <path d="M31.16,5.21c1.4.59.3,3.36-1.06,4.96-3.21,4.38-9.6,3.89-12.27,8.89-2.15,4.65-3.2,10.24-2.86,15.16.38,15.33,14.34,11.03,4.91,25.37-2.97,5.03-4.45,11.54-7.28,16.87-1.89,4.48-7.14,12.08-3.26,16.41,3.55,3.21,9.49,2.29,13.76.99,7.36-2.41,14.12-7.71,17.57-14.67,1.44-2.27,3.34-9.85,6.47-5.06,2.16,3.3,3.77,7.5,6.5,10.47,4.41,5.02,11.11,8.72,17.76,9.97,5.31,1.04,12.63.42,10.35-7.15-5.38-15.72-13.8-23.51-8.73-41.62,1.17-5.3,3.46-11.26,1.12-16.45-.94-1.97-2.64-3.45-3.77-5.3-1.3-2.04-1.36-4.39-1.65-6.96-.23-2.61-1.09-5.28-2.98-7.25-4.87-5.14-11.65-8.21-18.61-8.74-3.06-.37-8.58.36-10.25.4-1.21.04-.5-.32,1.73-.79,20.14-4.74,40.71,11.82,39.34,32.6-.15,5.85-2.45,11.36-3.35,17.07-2.29,14.06,6.17,25.98,9.97,38.94,1.64,5.5,2.33,11.79,1.54,17.73-2.96,35.26-56.82,44.3-75.76,17.3-4.51-6.52-6.92-15.14-6.8-22.95.13-16.78,12.74-29.6,12.38-46.39-.04-7.96-3.97-15.43-3.46-23.43.45-9.31,4.83-18.48,12.09-24.1,1.66-1.34,4.67-3.2,6.53-2.3l.06.03Z"/>
  <path d="M60.58,49.6c.52-1.63,3.32-5.26,4.11-7.51,1.63-3.99,3.28-9.59-.24-13-2.55-2.39-6.63-2.63-9.91-4.65-2.19-1.21-4.04-3.03-5.65-4.92-1.6-1.78-3.53-4.44-5.77-2.13-1.95,2-3.72,4.78-6.23,6.3-4.45,3.49-12.74,2.58-13.34,9.29-.25,2.61.73,6.17,1.17,8.59.23,1.17.26,1.67,0,1.3-2.23-4.15-3.02-12.71-1.08-17.92,2.6-8.89,10.81-15.71,20.13-16.24,21.12-1.51,31.94,26.7,16.82,40.92h0Z"/>
  <path d="M26.87,76.52c5.2,3.49,2.66,11.29-3.45,11.51-4.61.39-8.41-3.64-7.03-8.3,1.16-4.52,6.84-5.88,10.37-3.28l.11.07ZM21.75,79.57c-2.58.94-1.05,5.21,1.53,4.47,3.17-.87,1.72-5.44-1.39-4.52l-.14.05Z"/>
  <path d="M59.91,67.66c-2.74,1.29-6.46-.4-7.88-2.97-1.85-3.06-.11-7.37,3.49-8.04,3.49-.78,8.02,1.91,7.92,5.61.04,2.23-1.36,4.41-3.4,5.34l-.13.06ZM59.23,60.78c-1.7-1.96-5.3.68-3.68,2.9,1.81,2.13,5.25-.31,3.75-2.79l-.07-.1Z"/>
  <path d="M69.58,85.12c-1.45,3.72-6.86,4.26-9.39,1.35-1.52-1.82-1.98-4.56-1.15-6.78,1.1-3.18,5.16-3.68,7.89-2.32,2.78,1.29,3.8,4.91,2.7,7.61l-.05.13ZM62.06,81.22c-1.44,2.22,2.39,4.64,3.98,3.04,2.07-2.22-2.14-5.25-3.91-3.14l-.08.1Z"/>
  <path d="M27.39,69.03c-1.03-2.22-.28-5.59,1.97-6.86,2.37-1.39,5.95-.31,7.16,2.1,2.81,6.09-5.69,10.34-9.07,4.88l-.06-.12ZM31.15,64.95c-2.2.96-.89,4.62,1.47,3.55,1.97-.96.85-4.27-1.34-3.6l-.13.05Z"/>
  <path d="M67.73,66.62c3.22.07,3.32,5.49.33,6.03-3.85.16-4.63-5.76-.47-6.04h.14Z"/>
  <path d="M54.64,5.13c3.61-1.05,5.48,4.06,1.97,5.5-3.05,1.09-5.17-4.26-2.1-5.45l.13-.05Z"/>
  <path d="M51.83,54.3c-.48.66-2.6.73-3.6.87-5.49.4-11.46-.98-16.01-4.16-1.15-.85-1.11-1.21.39-.68,3.4,1.32,7.16,3.1,10.92,3.43,3.32.47,6.04-.16,8.29.51v.02Z"/>
  <path d="M17.04,27.58c1.55-1.26,4.09,1.27,3.08,2.88-.38.61-1.02,1.01-1.8.88-1.35-.3-2.06-2.63-1.35-3.68l.07-.08Z"/>
  <path d="M50.34,41.2c.27.56.15,1.31-.23,2.11-1,2.22-3.5,3.77-5.96,3.32-2.39-.17-5.31-3.55-4.46-5.39,1.09-1.59,3.42-1.17,5.17-1.28,1.72.04,4.6-.2,5.43,1.17l.04.08Z"/>
</svg>