<?xml version="1.0" encoding="UTF-8"?>
<svg id="_Слой_1" data-name="Слой_1" xmlns="http://www.w3.org/2000/svg" version="1.1" viewBox="0 0 5 5">
  <!-- Generator: Adobe Illustrator 29.8.3, SVG Export Plug-In . SVG Version: 2.1.1 Build 3)  -->
  <defs>
    <style>
      .st0 {
        fill: #00535e;
      }
    </style>
  </defs>
  <path class="st0" d="M3,4h-1s0,1,0,1h1s0-1,0-1Z"/>
  <path class="st0" d="M4,1h-1s0,1,0,1h1s0-1,0-1Z"/>
  <path class="st0" d="M5,2h-1s0,1,0,1h1s0-1,0-1Z"/>
  <path class="st0" d="M2,1h-1s0,1,0,1h1s0-1,0-1Z"/>
  <path class="st0" d="M3,0h-1s0,1,0,1h1s0-1,0-1Z"/>
  <path class="st0" d="M2,3H1s0,1,0,1h1s0-1,0-1Z"/>
  <path class="st0" d="M1,2H0s0,1,0,1H1s0-1,0-1Z"/>
  <path class="st0" d="M3,2h-1s0,1,0,1h1s0-1,0-1Z"/>
  <path class="st0" d="M4,3h-1s0,1,0,1h1s0-1,0-1Z"/>
</svg>