<?xml version="1.0" encoding="UTF-8"?>
<svg id="_Слой_1" data-name="Слой_1" xmlns="http://www.w3.org/2000/svg" version="1.1" viewBox="0 0 919.4 339.41">
  <!-- Generator: Adobe Illustrator 29.8.3, SVG Export Plug-In . SVG Version: 2.1.1 Build 3)  -->
  <defs>
    <style>
      .st0 {
        fill: #faac6e;
      }
    </style>
  </defs>
  <path class="st0" d="M631.39,319.2l12.35-20.99c-3.25-.11-6.4-1.46-8.53-3.48-1.8-1.8-3.59-4.94-3.59-10.1,0-5.72,2.13-9.54,4.27-11.67,3.7-3.59,7.97-3.93,12.35-3.93h8.53v50.17h-6.29v-20.77l-11.67,20.77h-7.41ZM650.47,292.94v-18.07h-3.25c-1.91,0-4.6.11-6.51,2.02-1.57,1.57-2.36,4.71-2.36,7.52s.78,5.16,2.25,6.62c1.91,1.8,4.71,1.91,6.29,1.91h3.59Z"/>
  <path class="st0" d="M610.05,319.2h-6.4v-4.04c-2.25,3.03-4.6,4.83-8.53,4.83-11.45,0-11.79-16.05-11.79-24.92,0-10.21.34-26.83,12.35-26.83,3.59,0,5.72,1.35,7.97,4.15v-3.37h6.4v50.17ZM604.32,293.83c0-9.99-.56-20.54-7.07-20.54-7.3,0-7.41,12.8-7.41,17.85,0,4.15,0,8.08.34,12.12.45,4.38,1.12,11.56,6.96,11.56,1.68,0,2.92-.45,4.04-1.68,3.14-3.14,3.14-14.93,3.14-19.31Z"/>
  <path class="st0" d="M559.86,319.2h-6.29v-23.46h-13.25v23.46h-6.29v-50.17h6.29v20.88h13.25v-20.88h6.29v50.17Z"/>
  <path class="st0" d="M503.11,319.2v-23.68c-2.02.67-4.15,1.01-6.85,1.01-4.27,0-7.3-1.23-9.09-2.81-3.25-2.92-3.37-7.63-3.37-11.56v-13.13h6.29v13.81c0,1.46,0,4.6,1.68,6.17,1.57,1.46,4.6,1.57,5.39,1.57,2.69,0,5.16-.67,5.95-.9v-20.65h6.29v50.17h-6.29Z"/>
  <path class="st0" d="M463.12,294.39c0,9.54-1.12,25.59-14.03,25.59s-14.7-16.16-14.7-25.93,1.8-25.82,14.7-25.82,14.03,16.5,14.03,26.15ZM456.61,294.06c0-5.05-.22-19.98-7.63-19.98s-7.97,15.27-7.97,20.54.34,19.42,7.97,19.42,7.63-14.93,7.63-19.98Z"/>
  <path class="st0" d="M397.09,319.2h-5.61l-6.51-30.31c-.67-2.92-1.01-5.28-1.35-7.86-.22,3.7-.45,5.16-.79,8.08l-3.48,30.08h-5.95l6.96-50.17h5.61l6.85,31.77c.9,3.93,1.35,7.52,1.46,8.98.11-1.46.56-5.05,1.46-8.98l6.85-31.77h5.61l6.96,50.17h-5.95l-3.48-30.08c-.34-2.92-.56-4.38-.79-8.08-.34,3.26-.79,5.39-1.35,7.86l-6.51,30.31Z"/>
  <path class="st0" d="M319.07,289.9h6.4c.22-5.28,1.68-14.37,5.84-18.52,2.47-2.36,5.28-3.14,8.42-3.14s5.84.79,8.31,3.14c5.28,5.05,6.06,14.14,6.06,22.67s-.79,17.62-6.06,22.79c-2.47,2.36-4.71,3.14-8.19,3.14-2.69,0-5.72-.45-8.53-3.14-4.72-4.6-5.95-14.7-5.95-21.22h-6.29v23.57h-6.4v-50.17h6.4v20.88ZM339.61,274.08c-1.35,0-2.58.45-3.7,1.57-1.68,1.68-4.15,5.95-4.15,18.41s2.47,16.72,4.15,18.41c1.12,1.12,2.36,1.57,3.7,1.57,1.46,0,2.69-.45,3.82-1.57.79-.9,4.04-4.6,4.04-18.41s-3.25-17.51-4.04-18.41c-1.12-1.12-2.36-1.57-3.82-1.57Z"/>
  <path class="st0" d="M269.42,269.03v3.37c2.13-2.81,4.38-4.15,7.97-4.15,12.35,0,12.46,15.83,12.46,24.92,0,10.78-.34,26.83-11.79,26.83-3.93,0-6.29-1.91-8.64-4.83v24.25h-6.29v-70.38h6.29ZM283.34,291.48c0-5.05-.11-18.19-7.41-18.19-6.51,0-7.07,10.55-7.07,20.54,0,4.38,0,16.16,3.14,19.31,1.12,1.23,2.36,1.68,4.04,1.68,5.84,0,6.51-7.18,6.96-11.56.34-3.93.34-7.86.34-11.79Z"/>
  <path class="st0" d="M422.63,71.53c.64-35.14-27.76-66.7-64.56-71.21l-.97-.32h-78.94v27.05h19.56v198.54h27.11v-74.43l48.75-14.49c28.72-9.98,48.4-36.1,49.07-65.09l-.03-.06ZM324.84,122.77V27.05h30.66c22.93,3.54,40.35,22.55,40.02,44.15-.32,17.39-12.59,33.53-30.66,39.64l-40.02,11.92Z"/>
  <path class="st0" d="M204.26,0c-16.46,75.07-32.91,150.17-49.07,225.25h27.11l10.33-48.34,29.05,8.37c15.17,5.48,26.15,17.71,29.37,31.92l.32,1.61,1.61,6.44h27.11c-16.13-75.07-32.59-150.17-48.72-225.25h-27.11ZM230.09,159.51l-31.62-9.34c6.44-29.34,12.91-58.65,19.35-87.98,7.09,33.85,14.52,67.67,21.64,101.51-2.9-1.61-5.8-2.9-9.37-4.19Z"/>
  <path class="st0" d="M728.28,123.44h-70.68V.35h-27.11v225.25h27.11v-75.07h70.68v75.07h27.11V.35h-27.11v123.09Z"/>
  <path class="st0" d="M521.15,89.27l-48.75-14.49V.35h-27.11v225.57h59.38l.97-.32c36.8-4.51,65.21-36.1,64.56-71.21-.64-29.02-20.32-55.1-49.07-65.09l.03-.03ZM503.09,198.52h-30.66v-95.39l40.02,11.92c18.07,6.12,30.33,22.22,30.66,39.64.32,21.58-17.1,40.61-40.02,43.83Z"/>
  <path class="st0" d="M610.89.35h-27.11v225.57h27.11V.35Z"/>
  <path class="st0" d="M147.51,48.02L158.08,0H0v27.05h19.18v198.54h60.34c36.8-4.83,65.21-36.1,64.56-71.53-.64-28.69-20.32-55.1-49.07-65.09l-48.72-14.17V27.41h75.63l-4.6,20.61h30.19ZM86.32,114.75c18.07,6.44,30.33,22.54,30.66,39.97.32,21.26-17.1,40.61-40.03,43.83h-30.66v-95.39l40.02,11.6Z"/>
  <path class="st0" d="M899.63.32h-60.08c-37.13,4.51-65.53,36.1-64.56,71.53.32,23.51,13.88,45.44,34.52,58l-34.52,95.71h28.08l30.98-85.73,38.74,11.27v74.43h27.11V27.38h19.5V.32h-19.76ZM872.78,122.8l-40.02-11.6c-18.07-6.44-30.33-22.54-30.66-39.97-.64-21.58,17.1-40.61,40.02-43.83h30.66v95.39Z"/>
  <path class="st0" d="M422.21,196.7h-75.92v27.38h75.92v-27.38Z"/>
  <path class="st0" d="M147.51,48.02L158.08,0H0v27.05h19.18v198.54h60.34c36.8-4.83,65.21-36.1,64.56-71.53-.64-28.69-20.32-55.1-49.07-65.09l-48.72-14.17V27.41h75.63l-4.6,20.61h30.19ZM86.32,114.75c18.07,6.44,30.33,22.54,30.66,39.97.32,21.26-17.1,40.61-40.03,43.83h-30.66v-95.39l40.02,11.6Z"/>
  <path class="st0" d="M422.63,71.53c.64-35.14-27.76-66.7-64.56-71.21l-.97-.32h-78.94v27.05h19.56v198.54h27.11v-74.43l48.75-14.49c28.72-9.98,48.4-36.1,49.07-65.09l-.03-.06ZM324.84,122.77V27.05h30.66c22.93,3.54,40.35,22.55,40.02,44.15-.32,17.39-12.59,33.53-30.66,39.64l-40.02,11.92Z"/>
  <path class="st0" d="M899.63.32h-60.08c-37.13,4.51-65.53,36.1-64.56,71.53.32,23.51,13.88,45.44,34.52,58l-34.52,95.71h28.08l30.98-85.73,38.74,11.27v74.43h27.11V27.38h19.5V.32h-19.76ZM872.78,122.8l-40.02-11.6c-18.07-6.44-30.33-22.54-30.66-39.97-.64-21.58,17.1-40.61,40.02-43.83h30.66v95.39Z"/>
  <path class="st0" d="M521.15,89.27l-48.75-14.49V.35h-27.11v225.57h59.38l.97-.32c36.8-4.51,65.21-36.1,64.56-71.21-.64-29.02-20.32-55.1-49.07-65.09l.03-.03ZM503.09,198.52h-30.66v-95.39l40.02,11.92c18.07,6.12,30.33,22.22,30.66,39.64.32,21.58-17.1,40.61-40.02,43.83Z"/>
  <path class="st0" d="M728.28,123.44h-70.68V.35h-27.11v225.25h27.11v-75.07h70.68v75.07h27.11V.35h-27.11v123.09Z"/>
</svg>