<?xml version="1.0" encoding="UTF-8"?>
<svg id="_Слой_1" data-name="Слой_1" xmlns="http://www.w3.org/2000/svg" version="1.1" viewBox="0 0 675 600">
  <!-- Generator: Adobe Illustrator 29.8.3, SVG Export Plug-In . SVG Version: 2.1.1 Build 3)  -->
  <g>
    <path d="M524.98,365.45c-14-18.37-21.63-38.44-25.6-59.5l.19,12.27-10.34-9.35.41,25.24,10.35,9.35.2,12.49-10.35-9.35-.2-12.49-20.91-18.89.2,12.5-10.35-9.35-.2-12.5,10.35,9.35-.42-25.24-10.36-9.35-.2-12.49,10.36,9.35.2,12.49,20.92,18.89-.22-12.49,10.31,9.31c-10.17-54.24,3.77-114.92-4.56-169.54C485.43,63.79,421.51,5.66,349.91.43h-.31c-83.84-6.17-161.85,56.56-170.07,141.95-6.4,52.36,5.78,106.28-2.55,158.39l10.1-9.13-.2,12.5,20.92-18.91.21-12.48,10.35-9.35-.2,12.48-10.36,9.35-.42,25.25,10.36-9.35-.21,12.48-10.35,9.35.2-12.48-20.9,18.89-.21,12.48-10.35,9.35.2-12.48,10.36-9.35.4-25.23-10.35,9.33.18-11.14c-.43,2.64-.91,5.28-1.47,7.93-2.2,10.32-5.52,20.93-10.3,30.66-8.62,17.36-20.97,31.8-30.74,48.47-37.48,61.8-63.49,133.35-67.57,206.14-.01.52,0,1.01.02,1.43.07,3.4,1.01,2.82,2.78,2.87,39.44-.07,109.78-.07,186.9-.03l-8.14-8.22,16.05-16.21-23.35-23.62-16.05,16.22-16.04-16.22,16.04-16.21,16.05,16.21,23.35-23.61-15.74-15.9-7.61,7.72-7.94-8.03,7.94-8.03,7.61,7.72,15.74-15.9-7.94-8.03,7.94-8.03,7.92,8.03-7.92,8.03,15.72,15.9,7.62-7.72,7.94,8.03-7.94,8.03-7.62-7.72-15.72,15.9,23.34,23.61,47.2-47.71-23.35-23.61,23.35-23.61,23.34,23.61-23.34,23.61,47.19,47.71,23.35-23.61-15.74-15.9-7.61,7.72-7.94-8.03,7.94-8.03,7.61,7.72,15.74-15.9-7.94-8.03,7.94-8.03,7.92,8.03-7.92,8.03,15.72,15.9,7.62-7.72,7.94,8.03-7.94,8.03-7.62-7.72-15.72,15.9,23.34,23.61-23.34,23.62,16.03,16.21-8.22,8.29c98.99.07,181.76.08,193.67-.04,1.25-.02,1.4-.52,1.58-2.58-4.36-82.63-36.11-164.83-83.4-231.8ZM238.64,412.67l-7.92-8.03-16.05,16.23,7.94,8.01-7.94,8.03-7.92-8.03,7.92-8.01-16.04-16.23-7.94,8.03-7.92-8.03,7.92-8.01,7.94,8.01,16.04-16.21-7.92-8.03,7.92-8.01,7.94,8.01-7.94,8.03,16.05,16.21,7.92-8.01,7.94,8.01-7.94,8.03ZM302.83,488.46l-7.94-8.03,7.94-8.03,7.94,8.03-7.94,8.03ZM334.78,456.6l-7.94-8.03,7.94-8.01,7.92,8.01-7.92,8.03ZM366.71,488.46l-7.94-8.03,7.94-8.03,7.94,8.03-7.94,8.03ZM401.63,280.93c-7.47,4.49-13.92,2.95-22.51.37-9.28-2.11-19.4-1.15-27.87,3.3-12.75,7.67-15.69,15.03-28.96,3.73-6.05-5-13.63-7.57-21.47-7.96-19.58.08-22.77,4.75-40.52-8.46-58.8-42.53-75.68-129.68-34.16-190.11,33.94-50.86,101.09-73.62,159.19-51.57l.28.11c54.46,20.95,91.26,76.59,88.46,135.69-3.13,46.05-30.66,94.5-72.44,114.9ZM478.97,412.67l-7.94-8.03-16.03,16.23,7.94,8.01-7.94,8.03-7.94-8.03,7.94-8.01-16.04-16.23-7.94,8.03-7.94-8.03,7.94-8.01,7.94,8.01,16.04-16.21-7.94-8.03,7.94-8.01,7.94,8.01-7.94,8.03,16.03,16.21,7.94-8.01,7.94,8.01-7.94,8.03Z"/>
    <path d="M405.3,575.49l-16.05,16.21,8.2,8.3c-40.8-.03-83.79-.05-125.34-.08l8.14-8.22-16.04-16.21,23.35-23.61,47.19,47.71,47.19-47.71,23.35,23.61Z"/>
  </g>
  <path d="M342.98,32.7c57.98,1.59,108.55,47.88,114.78,105.48,6.8,50.21-21.87,101.52-67.58,122.81-32.36,15.71-72.55,15.38-104.61-.8-37.99-18.65-64.43-57.88-66.6-100.32-5.15-69.3,54.52-130.32,123.82-127.17h.19ZM294.27,71.47c-4.62,1.3-3.19,32.31-3.36,38.2.5,12.18,10.51,17.61,13.4,28.77,3.46,31.26-12.95,64.5-4.88,95.41,2.86,12.15,16.06,12.63,19.28.25,6.59-24.71-2.13-50.12-4.44-74.86-4.97-27,9.26-28.03,12.73-49.25-.1-12.31.69-25.68-2.26-37.49-2.93-3.23-4.64,2.15-4.21,4.64-.57,9.33,2.91,20.58-.09,29.2-3.51,2.31-3.59-1.54-3.47-5.33-.94-5.48,2.03-28.48-2.04-29.63-4.5-.28-3.48,4.47-3.58,8.15.02,6.24.06,14.79.08,20.56.32,3.96-.11,8.78-4.2,6.37-2-9.47.53-24.39-1.24-33.83-1.65-2.62-5.45-1.1-4.91,1.99-.04,5.79-.08,22.76-.11,28.74.19,1.85-.8,4.41-3.04,3.31-5.61-4.02,3.4-33.75-3.57-35.22l-.11.02ZM379.15,172.1c-.69-1.3-1.02-3.02-.98-4.62.17-11.71.19-23.49.16-35.24-.02-14.16-.15-28.39,0-42.51-.15-5.23,1.1-10.85-.36-15.92-.72-1.87-2.23-2.98-3.98-2.81-6.25.53-11.58,20.7-13.05,26.29-5.36,22.01-5.33,44.3-3.97,66.89.39,3.1,1.76,5.69,1.8,8.7.18,3.46,2.96,6.39,2.02,10.08-1.97,14.38-6.91,45.36,2.41,56.8,3.43,4.34,9.47,4.28,12.8.11,9.62-11.88,5.01-41.45,2.75-56.36-.72-2.54.11-5.48,1.29-7.4.69-1.42-.1-2.51-.81-3.88l-.07-.13Z"/>
</svg>