<?xml version="1.0" encoding="UTF-8"?>
<svg id="_Слой_1" data-name="Слой_1" xmlns="http://www.w3.org/2000/svg" version="1.1" viewBox="0 0 90 140">
  <!-- Generator: Adobe Illustrator 29.8.3, SVG Export Plug-In . SVG Version: 2.1.1 Build 3)  -->
  <path d="M59.41,4.4c-1.47-.12-5.28-1.46-7.02-1.51-1.74-.19-2.33.19-.26,1.5,10.78,5.27,17.01,19.89,14.42,31.36-.75,3.33-1.94,6.17-.98.59,2.3-11.3-7.18-8.41-13.82-13.23-1.31-.89-2.49-1.98-3.48-3.2-1.42-1.57-2.85-4.75-5.17-3-2.8,2.73-5.3,6.47-9.2,7.9-3.08,1.48-6.95,1.77-9.03,3.61-2.19,1.8-2.22,4.94-1.64,7.63,3.52,17.35,23.93,22.63,36.71,10.79,1.13-.85,1.83-1.3,1.95-1.14.19.22-.91,1.89-2.74,3.65-2.31,2.21-5.33,3.8-8.04,5.48-1.1.72-2.54,1.64-2.82,2.77-.11,2,3.06,3.06,4.47,4.2,5.07,3.4,10.73,8.82,6.71,13.42-1.78,2.08-5.83,2.74-7.07,5.23-.66,1.78,1.02,3.59,2.22,4.89,5.17,5.26,12.84,8.08,20.41,8.31,11.72.55,4.1-9.74,1.83-15.76-2.33-5.23-4.57-10.55-5.52-16.21-2.62-13.3,6.35-26.24,1.96-39.48-1.36-4.6-4.52-9.33-7.46-12.93-.9-1.14-1.07-1.45-.4-.88,5.66,4.96,10.02,11.84,10.75,19.69,1.39,10.08-4.99,19.21-3.91,29.31.97,13.63,10.03,23.25,12.21,36.42,1.57,6.29-.04,10.86-2.9,16.31-.92,3.92-2.48,6.88-3.81,10.51-.73,1.56-1.2,5.5-2.4,4.8-.63-.46-1.34-3.31-2.56-4.8-4.74-5.91-13.91-3.18-15.88,3.73-.31,1.23-.22,2.55.18,3.77.81,3,4.03,4.87,3.3,7.72-.72,1.35-2.61,1.65-4.05,2.06-2.33.54-4.94,1.01-7.38,1.27-12.11,1.67-4.04-6.8-11.9-9.29-5.24-1.71-6.23,4.22-9.5,5.3-1.42.27-2.78-.78-4-1.45-1.56-.94-3.35-1.82-4.41-2.61-.49-.37-.89-.84-1.05-1.43-.48-2.24,1.29-4.25,2.22-6.27,1.23-2.5,1.44-5.34-.08-7.74-4.81-7.34-12.52-2.19-14.5-5.55-.53-1.12.08-3.17.11-4.79.15-2.67-1.66-4.54-1.98-7.71-.13-4.22,1.41-8.85,2.77-12.71,4.68-11.5,11.97-22.56,9.24-35.7-.75-4.46-2.46-8.41-3.19-12.86C8.42,10.75,36.77-8.47,59.41,4.39h0ZM42.11,10.1c-.13-.16-.36.06-.74.47-.58.65-1.28,1.65-1.85,2.48-3.84,6.4-8.01,8.03-14.47,10.99-1.34.7-1.7,1.17-.06.88,7.25-1.44,15.31-7.4,17.14-14.79v-.03ZM46.97,10.17c-.9.46,1.24,3.92,1.8,4.64,3.54,4.92,8.85,8.76,14.91,9.9,1.42.27,1.87.07.3-.75-5.92-2.73-10.45-3.86-13.95-9.92-.84-1.2-1.91-3.26-3.03-3.87h-.04ZM36.94,11.58c-1.05.36-2.34,2.2-3.26,3.04-2.25,2.55-5.25,4.4-7.91,6.55-.66.58-.64.76.19.44,4.5-1.94,9.14-5.44,10.99-10.02v-.02ZM52.2,11.29c-1.02.16.67,2.81,1.11,3.31,2.19,2.92,7.47,6.57,10.7,6.97.15,0,.29,0,.27-.16-1.45-1.55-3.77-2.27-5.48-3.66-1.31-.94-2.55-2.12-3.56-3.33-1.25-1.47-2.09-2.73-2.99-3.12h-.05ZM44.47,87.3c-3.38,1.05-1.44,6.34,1.82,4.72,2.52-1.26,1.04-5.41-1.68-4.76l-.14.04ZM27.87,100.53c1.18-1.87,2.14-4.22.54-5.97-.96-.99-2.59-1.52-3.35-1.13-1.35.78-.77,2.79-1.25,4.08-.21.9-1.19,1.43-1.94.85-.99-.78-1.43-2.19-2.45-2.95-1.07-.96-2.36.02-2.97,1.15-1.57,2.71.59,5.91,3.78,6.96,2.89,1.05,6.02-.3,7.57-2.88l.07-.11ZM71.05,95.37c-6.33-3.53-2.28,12.55,7.34,7.15,1.98-1.12,3.57-3.38,3.1-5.69-.24-1.01-1.01-2.14-2.06-1.9-.79.18-1.76,1.27-2.73,2.02-2.14,1.99-3.65-.15-5.55-1.51l-.1-.06ZM51.28,111.86c4.97-3.68,4.91-6.82,2.12-12.03-1.94-4.44-5.39-4.8-9.86-4.76-1.82.03-3.89.09-5.25,1.46-1.41,1.42-2.15,3.93-2.8,6.31-.36,1.43-.7,2.97-.42,4.42.45,2.51,3.28,3.76,5.29,5.15,4.39,3.31,6.7,3.22,10.82-.46l.1-.08ZM67.08,105.54c-3.38,1.05-1.44,6.34,1.82,4.72,2.52-1.26,1.04-5.41-1.68-4.76l-.14.04ZM30.04,113.59c-4.31,1.84-1.46,8.13,2.83,6.17,3.61-1.93,1.28-7.51-2.69-6.22l-.14.05ZM51.2,133c2.11-2.38-1.75-6.03-3.94-3.5-1.76,2.18,1.79,5.52,3.84,3.59l.1-.1Z"/>
  <path d="M64.51,122.28c4.39-1.34,6.26,5.34,2.36,6.95-4.45,1.48-6.71-5.22-2.49-6.91l.14-.04Z"/>
  <path d="M9.87,122c-3-3.3,2.71-7.93,5.6-4.76,3.44,3.63-2.11,7.97-5.5,4.86l-.1-.1Z"/>
  <path d="M35.18,132.44c3.12-.94,4.58,3.65,1.4,4.52-2.56.75-4.11-3.54-1.54-4.47l.14-.05Z"/>
  <path d="M49.78,42.22c.46,1.3-.72,3.26-1.74,4.21-1.71,1.6-4.41,1.86-6.41.65-1.92-1.14-4.02-4.71-1.64-5.64,1.33-.45,2.85-.28,4.3-.32,1.69.09,4.66-.38,5.44,1.02l.04.08Z"/>
  <path d="M47.51,101.97c1.78,1.79,1.08,5.3-1.28,6.24-1.75.74-4.12-.38-4.7-2.13-1.14-3.18,3.26-6.75,5.88-4.21l.1.1Z"/>
</svg>