<?xml version="1.0" encoding="UTF-8"?>
<svg id="_Слой_1" data-name="Слой_1" xmlns="http://www.w3.org/2000/svg" version="1.1" viewBox="0 0 90 140">
  <!-- Generator: Adobe Illustrator 29.8.3, SVG Export Plug-In . SVG Version: 2.1.1 Build 3)  -->
  <path d="M46.87,81.64c1.11.78,1.98,1.68,2.66,2.84.96,1.87,2.3,3.57,3.75,5.1.79.91,1.58,1.79,2.63,2.46,2.17,1.23,4.22,2.18,6.67,3.05,1.26.38,2.53.69,3.69,1.32,3.18,1.43,5.19,5.26,8.39,6.26,2,.54,4.21-.13,5.82-1.36,1.19-.83,2.22-2.08,3.36-2.69.71-.37,1.4-.2,1.91.58,1.2,1.76.13,4.43-.56,6.31-.8,2.12-2.12,3.89-2.66,5.99-.27,1-.39,2.07-.57,3.08-.19,1.02-.38,1.86-.78,2.75-.55,1.22-1.78,2.17-2.22,3.68-.61,1.74-.25,4.52-1.87,5.65-1.56.59-1.23-3.82-1.96-4.78-1.21-2.61-6.01-3.57-8.77-4.08-3.64-.44-9.01,4.58-9.27,8.15-.04,2.62,1.99,5.36,3.56,7.74,2.03,3.19,1.24,4.37-1.88,5.1-3.94.96-8.12,1.71-12.13,1.8-2.42-.03-5.32.05-4.79-3.29.48-3.09-1.51-6.45-4.65-7.08-6.87-1.66-6.41,8.34-11.2,6.37-1.44-.68-2.74-1.74-4.13-2.52-1.37-.95-3.25-1.32-4.43-2.5-1.09-1.33,1.23-4.7,2.41-6.47.9-1.56,1.67-3.34,1.79-5.11.07-1.11-.3-2.19-.94-3.11-2.99-4.06-6.82-6.38-11.97-4.64-1.97.65-4.31-.47-4.21-2.27.06-1.55,1.25-2.97,1.31-4.52.2-1.99-1.77-3.72-2.13-5.4-.01-3,4.82-2.17,6.86-2.23,2.68.13,4.36,1.34,6.31,3.19.96.88,2.02,1.75,3.3,2.1,2.73.72,5.37-.55,6.75-2.87,1.62-2.89,3.22-6.05,6.14-7.82,2.6-1.82,4.64-4.31,6.34-6.88,1.32-2.58,4.32-6.03,7.39-3.95l.08.06ZM47.3,87.78c-1.5-.91-3.8.36-4.18,2.02-.31,1.29.93,2.82,2.19,2.88,2.24.12,3.88-3.36,2.09-4.82l-.1-.07ZM51.52,96.92c-2.36-1.73-5.87-.79-8.67-1.16-5.06-.43-5.37,2.89-6.56,6.8-1.74,4.7-1.3,7.26,3.22,9.59,3.59,2.3,5.96,5.75,10.15,1.95,2.77-2.76,7.98-4.73,5.78-9.52-1.29-2.44-1.85-5.64-3.81-7.57l-.1-.08ZM67.77,106.29c-2.74.67-2.16,5.14.68,5.08,3.68-.08,3-5.78-.54-5.12l-.14.04ZM30.17,114.46c-4.13,1.71-1.78,7.9,2.53,6.42,4.11-1.65,1.9-7.84-2.38-6.46l-.14.05ZM48.57,129.94c-2.58,1.14-1.22,5.15,1.69,4.34,3.62-.82,1.58-5.19-1.56-4.38l-.13.04Z"/>
  <path d="M48.45,80.5c-1.71-2.35-2.98-9.58-5.17-4.6-2.11,5.82-6.65,10.79-11.91,14.49-5.68,3.79-12.84,5.9-19.68,5.44-5.54-.43-8.24-2.01-5.93-8.14,2.31-6.88,6.29-13.21,8.84-19.98C23.06,44.63-.18,29.76,22.88,7.71c19.43-17.71,52.09-5.25,54.32,20.23,1.35,18.25-9.82,23.73.5,45.82,2.18,4.7,5.43,11.12,6.81,15.39.45,1.41.73,3.04-.24,4.25-1.76,2.04-5.21,2.41-7.86,2.52-11.08.19-21.92-6.12-27.88-15.3l-.07-.11ZM42.44,9.29c-.17-.15-.43.11-.85.56-.61.69-1.3,1.7-1.85,2.57-3.48,6.1-8.17,8.87-14.56,11.21-1.29.56-1.79.96-.25.68,7.21-1.43,13.71-6.07,16.8-12.58.33-.71.85-1.88.73-2.41l-.02-.03ZM47.45,9.52c-.94-.04.51,2.87.87,3.41,3.69,5.89,9.78,10.33,16.88,11.35,1.13.18,1.79.11.35-.49-5.86-1.92-11.81-4.63-15.15-10.04-.87-1.28-1.77-3.36-2.92-4.21l-.04-.02ZM65.73,28.08c-1-1.34-2.75-1.75-4.35-2.04-3.02-.52-5.99-1.59-8.52-3.27-2.07-1.29-3.81-3.28-5.24-5.58-.79-1.09-1.73-3.22-3.02-3.34-.92.08-1.57,1.76-2.12,2.65-2.76,5.18-8.12,8.37-13.88,9.47-4.8.57-6.37,3.3-5.7,8.08,3.47,28.35,42.85,26.17,43.87-1.94.02-1.59-.29-2.96-.98-3.91l-.07-.1Z"/>
  <path d="M9.72,122.98c-2.66-2.76,1.7-7.54,4.82-5.7,1.53.91,2.36,3.29,1.56,4.85-1.1,2.26-4.54,2.66-6.29.95l-.1-.1Z"/>
  <path d="M65.14,123.27c4.42-1.37,6.21,4.79,2.3,6.84-4.51,2.14-6.57-5.24-2.44-6.79l.14-.05Z"/>
  <path d="M35.39,133.59c3.16-.97,4.69,3.69,1.43,4.57-2.56.77-4.18-3.59-1.57-4.53l.14-.05Z"/>
  <path d="M25.16,97.62c.17.29.1.67-.05.98-.82,1.83-3.13,2.13-4.61.72-1.2-1.22.49-2.5,1.72-2.48.84.02,2.19-.02,2.88.67l.06.1Z"/>
  <path d="M51.01,40.16c.15,1.01-.09,2.27-.56,2.53-.39.08-.67-.61-.95-.94-1.09-1.76-2.87-1.9-5.1-1.88-1.52,0-2.91-.02-3.69.62-.57.42-.94,1.17-1.25,1.76-.26.48-.52.75-.8.19-.94-3.23,1.71-3.03,4.61-3.14,1.62-.07,3.36-.15,4.96-.22,1.55-.07,2.48-.1,2.75.97l.03.11Z"/>
  <path d="M47.86,108.31c-2.81,2.8-7.64-1.47-5.81-4.72,3.27-4.78,9.49.36,5.91,4.61l-.1.1Z"/>
</svg>