<?xml version="1.0" encoding="UTF-8"?>
<svg id="_Слой_1" xmlns="http://www.w3.org/2000/svg" version="1.1" viewBox="0 0 599.93 599.93">
  <!-- Generator: Adobe Illustrator 29.8.3, SVG Export Plug-In . SVG Version: 2.1.1 Build 3)  -->
  <g>
    <path d="M265.06,89.21l3.46,2.27v-2.27h-3.46Z"/>
    <path d="M96.99,442.17c-6.54-28.04,12.35-59.32,45.16-72.53,33.07-13.23,71.69-3.75,83.58,23.86,0,2.83-2.06,5.75-5.38,7.08-3.71,1.49-7.81.51-9.52-2.36-27.26-44.28-109.42-11.17-98.43,39.61,1.74,8.5-13.08,12.85-15.41,4.34Z"/>
    <path d="M172.84,447.73c4.7-29.69,51.79-29.43,55.97.38-.05,3.61-5.94,3.95-6.49.39-3.59-22.7-39.44-22.69-43.02,0-.63,3.81-6.93,3.04-6.46-.77h0Z"/>
    <path d="M243.72,366.37c.74,6.69-10.99,8.9-12.11,2.1-6.01-52.36,78.84-76.89,101.69-29.43,1.35,3.03-.8,6.26-4.26,7.3-2.94.85-6.01-.24-7.1-2.61-7.24-15.67-27.46-23.54-47.52-17.74-20.06,5.81-32.95,23.27-30.7,40.38h0Z"/>
    <path d="M257.08,382.16c12.85-42.09,84.3-32.55,85.69,11.4.09,2.65-2.81,4.59-5.6,4.16-2.48-.33-4.41-2.19-4.44-4.36-1.08-33.82-56.04-41.14-65.91-8.77-1.7,5.38-11.17,3.11-9.74-2.43h0Z"/>
    <path d="M365.87,371.78c-9.35,0-16.92-7.58-16.92-16.93.77-22.4,33.08-22.39,33.85,0,0,9.35-7.58,16.93-16.93,16.93Z"/>
    <path d="M473.77,440.37c.72,6.19-10.73,7.05-11.8,1.2-6.66-35.73-71.99-35.71-78.64,0-.47,2.59-3.26,4-5.88,4-3.57,0-6.37-2.44-5.92-5.2,8.67-46.46,93.58-46.44,102.24,0Z"/>
    <path d="M485.03,434.03c-10.57-56.7-114.21-56.67-124.76,0-.75,4.12-5.18,6.35-9.34,6.35-5.65,0-10.1-3.87-9.38-8.26,13.75-73.71,148.47-73.68,162.2,0,1.09,9.86-16.96,11.2-18.72,1.91Z"/>
    <path d="M226.11,313.5h5.34c1.56,0,2.83-1.27,2.83-2.83v-145.46c0-1.56,1.27-2.83,2.83-2.83h13.92c1.56,0,2.83,1.27,2.83,2.83v1.77c0,1.98,1.99,3.35,3.84,2.65,4.89-1.87,9.78-3.73,14.67-5.6,6.89-3.59,14.49-8.31,22.62-14.6,6.77-5.26,12.42-10.55,17.06-15.41,72.5-1.28,146.43,2.73,219.4,3.2,1.58.03,2.88-1.24,2.88-2.83v-15.38c0-1.59-1.3-2.86-2.89-2.83l-217.37,4.48c-.75.02-1.46-.26-2-.78-10.13-9.97-27.16-22.49-40.81-29.52h0l-13.31-6.51c-1.88-.92-4.08.45-4.08,2.54,0,1.56-1.27,2.83-2.83,2.83h-13.92c-1.56,0-2.83-1.27-2.83-2.83v-8.05c0-1.56-1.27-2.83-2.83-2.83h-5.34c-1.56,0-2.83,1.27-2.83,2.83-.02,2.09-.07,11.38.29,13.27,0,2.26-.59,4.59-.4,6.95h.11c.39,8-.04,15.98,0,23.74h-.15c-.08,3.12.15,9.35.15,9.35v179.03c0,1.56,1.27,2.83,2.83,2.83h-.01ZM237.11,98.55h15.66c.73,0,1.44.28,1.97.79,6.16,5.77,6.24,15.96-.03,21.78-.51.5-1.19.77-1.9.78-5.21.11-10.43.21-15.64.32-1.59.03-2.89-1.24-2.89-2.83v-18.02c0-1.56,1.27-2.83,2.83-2.83h0ZM237.17,131.69l15.41.29c.87.02,1.68.43,2.21,1.12,4.25,5.09,4.19,13.79.02,18.81-.54.71-1.37,1.12-2.26,1.12h-15.43c-1.56,0-2.83-1.27-2.83-2.83v-15.68c0-1.58,1.3-2.86,2.89-2.83h-.01Z"/>
    <path d="M544.77,488.8c-7.94,22.52-39.96,28.88-57.01,32.16-197.71,37.35-473.81,24.16-444.99-59.62h502c1.91,6.3,3.82,16.63,0,27.46h0Z"/>
    <path d="M162.46,96.9v-6.04c0-.91.73-1.65,1.64-1.65h16.07c.91,0,1.65-.74,1.65-1.65v-10.41c0-.91.73-1.65,1.64-1.65h7.71c.91,0,1.65.74,1.65,1.65v75.89c-.1.67.05,3.65,0,4.52-.52,2.49-.19,2.81,0,3.3v150.99c0,.91-.74,1.65-1.65,1.65h-7.71c-.91,0-1.64-.74-1.64-1.65v-147.82c0-.91-.74-1.65-1.65-1.65h-14.12c-.91,0-1.64-.74-1.64-1.65v-6.04c0-.91.73-1.65,1.64-1.65h14.12c.91,0,1.65-.74,1.65-1.65v-18.1c0-.91-.74-1.65-1.65-1.65h-14.12c-.91,0-1.64-.74-1.64-1.65v-6.05c0-.91.73-1.65,1.64-1.65h14.12c.91,0,1.65-.74,1.65-1.65v-20.44c0-.91-.74-1.65-1.65-1.65h-16.07c-.91,0-1.64-.74-1.64-1.65h0Z"/>
    <path d="M141.3,437.58c1.7,4.16-5.6,7.77-7.49,3.68-13.41-32.28,37.3-64.35,60.72-38.44,2.95,3.64-3.72,8.44-6.53,5.19-18.03-19.95-57.03,4.76-46.7,29.57Z"/>
    <path d="M204.11,342.01c0,9.35-7.58,16.93-16.93,16.93-22.41-.77-22.41-33.09,0-33.86,9.35,0,16.93,7.58,16.93,16.93h0Z"/>
    <path d="M202.94,98.18c-.36-1.42-1.61-6.37-2.12-8.24-.14-.5-.15-1.01-.03-1.51.65-2.92,2.93-12.92,3.53-12.92h5.27c2.46,0,4.45,1.99,4.45,4.45v7.98c-.52,49.39-.32,171.2-.34,222.37,0,1.75-1.42,3.17-3.17,3.17h-4.67c-1.75,0-3.17-1.42-3.17-3.17-.11-44.5.11-169.59.24-212.14h0Z"/>
    <path d="M171.92,153.04v1.57c-.05-.72-.07-1.36,0-1.57Z"/>
    <path d="M171.92,157.56v3.3c-.19-.49-.52-.81,0-3.3Z"/>
    <path d="M171.92,162.38v-1.52c.12.29.18.63,0,1.52Z"/>
    <path d="M172.01,157.16c-.03.14-.06.27-.09.4v-2.95c.06,1.04.16,2.24.09,2.55Z"/>
    <path d="M171.92,153.04v1.57c-.05-.72-.07-1.36,0-1.57Z"/>
    <path d="M171.92,157.56v3.3c-.19-.49-.52-.81,0-3.3Z"/>
  </g>
  <path d="M192.82,88.71h0Z"/>
  <path d="M265.06,89.21"/>
</svg>