<?xml version="1.0" encoding="UTF-8"?>
<svg id="_Слой_1" data-name="Слой_1" xmlns="http://www.w3.org/2000/svg" version="1.1" viewBox="0 0 599.93 599.93">
  <!-- Generator: Adobe Illustrator 29.8.3, SVG Export Plug-In . SVG Version: 2.1.1 Build 3)  -->
  <path d="M431.21,269.7c24.6-.96,35.68-1.33,52.18,22.31,46.74,49.49-32.35,118.71-84.15,118.72-118.36,119.4-274.38,21.17-254.31-138.21-12.92-23.51,3.35-32.56,26.5-27.5,22.77,4.07,53.4-7.14,72.39,3.59,15.43,69.17-28.83,58.71-22.85,112.84-7.46,28.89,22.36,34.48,44.55,30.45,12.75,2.72,30.65.15,34-14.89,11.22-60.54-26.47-58.69-24.51-92.5-2.71-25.4-3.9-47.79,28.41-39.49,39.13,2.71,80.8-3.24,119.03.94,8.27,5.48,5,20.71,8.76,23.74ZM446.72,290.24c-31.12-.26-24.38,34.85-28.01,56.98-34.79,79.84,64.18,13.17,56.1-27.64-2.05-15.22-8.67-35.2-28.09-29.34Z"/>
  <path d="M317.67,76.18c5.12-1.55,11.27,2.99,11.32,8.29-2.49,11.75-17.86,15.23-12.82,28.81,5.28,11.28,25.69,28.49,24.86,44.2.72,10.93-16.64,43.57-26.85,25.78-2.35-10.49,10.65-12.36,11.77-23.8-3.91-34.63-49.02-39.09-8.27-83.29Z"/>
  <path d="M245.71,101.23c6.57-1.77,10.78,2.83,10.32,9.24-14.86,19.63-20.59,24.32.38,44.57,4.6,6.88,12.52,18.12,12.63,26.43-.42,10.25-20.9,49.59-28.13,23.01,20.48-26.72,14.89-27.07-6.77-54.18-10.32-13.26-2.43-41.86,11.57-49.07Z"/>
</svg>