<?xml version="1.0" encoding="UTF-8"?>
<svg id="_Слой_1" xmlns="http://www.w3.org/2000/svg" version="1.1" viewBox="0 0 599.93 599.93">
  <!-- Generator: Adobe Illustrator 29.8.3, SVG Export Plug-In . SVG Version: 2.1.1 Build 3)  -->
  <defs>
    <style>
      .st0 {
        stroke: #1d1d1b;
        stroke-linecap: round;
        stroke-miterlimit: 10;
      }
    </style>
  </defs>
  <path class="st0" d="M434.74,384.33c-.54,1.27-.22,2.74.8,4.52,1.44,2.48,3.83,5.2,5.72,7.61,8.98,11.34,14.66,24.96,20.65,38.03,4.08,10.23,10.52,20.95,11.68,31.71,1.5,16.13-13.79,26.22-20.67,39.02-3.49,6.54-2.86,14.1,5.36,13.58,4.76-.36,10.01-3.07,14.44-5.23,15.86-7.9,31.98-15.32,48.41-22.06,9.11-3.5,34.37-15.18,11.83-21.16-5.55-1.3-11.29-2.15-16.95-3.24-10.44-1.98-21.08-3.33-28.75-10.46-5.8-5.34-9.11-12.84-12.55-19.83-6.36-13.47-12.95-26.83-19.15-40.37-2.39-4.99-3.69-11.65-8.4-14.67-3.67-2.47-10.88-1.03-12.39,2.48l-.04.09v-.02Z"/>
  <path class="st0" d="M314.15,197.36c8.81-3.22,18.87-7.08,28.37-11.45,9.07-4.17,20.16-10.45,27.72-16.42,4.42-3.23,7.06-6.84,12.2-6.12,41.25,3.6,114.68,184.96,58.69,214.68-44,20.83-88.73-45.04-102.72-68.97-4.48-7.46-7-12.62-10.91-21.73-10.54-27.15-33.77-84.34-13.48-89.94l.11-.05h.02ZM327.61,256.36c6.3,7.45,13.03,6.37,24.38,5.73,5.6-.34,11.59-.57,17.12-.35,12.41.38,22.8,3.39,34.54,6.92,6.82,1.98,16.54,5.59,21.41,3.97,7.8-2.62,8.2-12.78,7.67-20.24-1.94-23.02-16.25-47.54-30.11-62.13-5.15-5.01-12.11-13.74-19.63-12.74-2.94.38-6.19,2.22-10.87,4.37-7.46,3.52-17.55,8.27-27.07,12.76-9.88,4.66-19.1,8.99-24.25,11.44-5.9,2.85-6.65,3.52-6.57,8.86.63,13.8,5.07,30.73,13.29,41.3l.1.11h-.01Z"/>
  <path class="st0" d="M166.06,384.33c.54,1.27.22,2.74-.8,4.52-1.44,2.48-3.83,5.2-5.72,7.61-8.98,11.34-14.66,24.96-20.65,38.03-4.08,10.23-10.52,20.95-11.68,31.71-1.5,16.13,13.79,26.22,20.67,39.02,3.49,6.54,2.86,14.1-5.36,13.58-4.76-.36-10.01-3.07-14.44-5.23-15.86-7.9-31.98-15.32-48.41-22.06-9.11-3.5-34.37-15.18-11.83-21.16,5.55-1.3,11.29-2.15,16.95-3.24,10.44-1.98,21.08-3.33,28.75-10.46,5.8-5.34,9.11-12.84,12.55-19.83,6.36-13.47,12.95-26.83,19.15-40.37,2.39-4.99,3.69-11.65,8.4-14.67,3.67-2.47,10.88-1.03,12.39,2.48l.04.09v-.02Z"/>
  <path class="st0" d="M282.56,197.36c-8.81-3.22-18.87-7.08-28.37-11.45-9.07-4.17-20.16-10.45-27.72-16.42-4.42-3.23-7.06-6.84-12.2-6.12-41.25,3.6-114.68,184.96-58.69,214.68,44,20.83,88.73-45.04,102.72-68.97,4.48-7.46,7-12.62,10.91-21.73,10.54-27.15,33.77-84.34,13.48-89.94l-.11-.05h-.02ZM269.1,256.36c-6.3,7.45-13.03,6.37-24.38,5.73-5.6-.34-11.59-.57-17.12-.35-12.41.38-22.8,3.39-34.54,6.92-6.82,1.98-16.54,5.59-21.41,3.97-7.8-2.62-8.2-12.78-7.67-20.24,1.94-23.02,16.25-47.54,30.11-62.13,5.15-5.01,12.11-13.74,19.63-12.74,2.94.38,6.19,2.22,10.87,4.37,7.46,3.52,17.55,8.27,27.07,12.76,9.88,4.66,19.1,8.99,24.25,11.44,5.9,2.85,6.65,3.52,6.57,8.86-.63,13.8-5.07,30.73-13.29,41.3l-.1.11h.01Z"/>
  <path class="st0" d="M343.51,50.17c-34.2.8-39.87,48.39-6.91,57.25,14.08,3.69,29.87-4.58,34.42-18.5,6.65-18.71-7.34-38.86-27.31-38.75h-.2ZM343.51,97.81c-13.66.14-22.67-14.81-16.53-26.92,6.35-13.32,26.26-13.57,32.99-.53,6.64,12.12-2.33,27.59-16.26,27.45h-.2,0Z"/>
  <path class="st0" d="M290.74,138.61c-14.59-.14-24.56,15.4-17.45,28.32,7.21,13.67,28.7,13.27,35.38-.52,6.59-12.9-3.42-27.95-17.73-27.8h-.2,0ZM290.74,170.15c-9.1.16-15.64-9.84-11.21-17.94,4.39-8.69,18.01-8.77,22.52-.17,4.6,8.11-1.92,18.27-11.11,18.11h-.2Z"/>
  <path class="st0" d="M359.16,131.12c.59.91.05,2.04-.41,2.99-1.42,2.88-4.79,6.6-5.94,10.5-.73,2.32-.69,4.79-.42,7.19.03,2.61,2.72,11.14-2.13,9.43-3.51-1.4-7.01-4.98-11.36-6.29-2.32-.73-4.78-.7-7.18-.42-2.61.03-11.12,2.73-9.41-2.13,1.4-3.52,4.97-7.03,6.27-11.38.73-2.32.69-4.79.42-7.19-.03-2.61-2.72-11.14,2.13-9.43,3.51,1.4,7.01,4.98,11.36,6.29,3.37,1.08,7.07.46,10.48-.04,2.02-.2,4.84-.87,6.13.41l.05.06h.01Z"/>
  <path class="st0" d="M275.62,74.91c3.68,5.17-6.82,14.16-6.63,20.44-.33,6.39,5.79,11.27,7.65,16.91,1.57,4.22-.35,6.23-4.64,4.83-4.92-1.42-9.46-5.94-14.65-6.84-7.8-1.4-13.9,7.94-20.87,8.06-6.09-.78.68-10.7,2.62-14.16,2.26-3.6,3.24-8.08,1.25-12.02-1.79-3.82-5.22-7.73-6.57-11.63-1.48-3.92.17-6.02,3.86-5.04,5.02.94,10.87,6.98,16.73,7.17,7.18.76,14.73-10.31,21.18-7.78l.07.06h0Z"/>
</svg>