<?xml version="1.0" encoding="UTF-8"?>
<svg id="_Слой_1" data-name="Слой_1" xmlns="http://www.w3.org/2000/svg" version="1.1" viewBox="0 0 599.93 599.93">
  <!-- Generator: Adobe Illustrator 29.8.3, SVG Export Plug-In . SVG Version: 2.1.1 Build 3)  -->
  <path d="M189.77,345.25c105.75,1.65,211.64,1.03,317.56.81,11.31,1.73,16.64,6.94,17.64,18.36,5.02,64.66-47.5,119.54-108.58,131.46-117.94-8.02-325.78,52.27-342.39-119.44-1.15-24.98,4.46-31.5,29.53-30.53,29.83,1.15,56.45-.26,86.24-.66Z"/>
  <path d="M406.71,163.24c38.42-4.89,50.21,41.31,46.24,71.23.78,7.81,2.38,4.95,6.73,7.26,30.73,8.15,42.26,37.55,29.71,66.18-3.64,10.32-9.39,23.37-21.91,19-12.55.32-24.55-.2-37.08,0-7.51-.25-47.06,8.06-25.81-6.82,13.76-4.39,28.6-11.2,41.05-17.94,6.93-3.95,6.28-13.96-2.29-15.1-10.31-1.37-13.33,4.26-20.71,8.1-8.93,1.53-19.04,10.64-26.97,11.66-6.52-3.91-.18-10.62,1.22-15.42,5.64-19.33,8.63-40.36,14.54-59.45,1.99-6.43,8.66-11.58-.93-17.03-14.37-8.17-15.09,18.22-16.78,25.32-7.01,11.88-8.58,26.86-12.48,40.51-1.81,6.61-1.98,13.13-3.22,19.78-10.65,2.28-10.44-6.86-14.23-12.91-9.54-8.17-17.02-38.67-32.7-26.02-3.43,8.85,22.44,40.65,27.97,50.74,2.95,4.12,11.41,6.6,8.41,14.62-3.55,4.06-6.13.22-9.07.01-16.85-2.01-35.57,4.25-51.85-1.11-30.4-46.83-21.95-129.45,49.79-114,10.32-18.65,26.83-44.88,50.36-48.62Z"/>
  <path d="M143.71,163.16c16.49.43.34,14.04,30.66,8.88,35.08,4.79,50.35,70.43,15.44,84.26-38.67,5.64-76.54-41.54-46.97-75.04.5-3.14-7.74-15.64.87-18.1Z"/>
  <path d="M251.77,193.2c32.07.07,21.29,49.27,22.23,70.31-.98,11.02-10.34,19.58-21.54,19.54-9.66-.03-20.59-8.66-21.55-18.53,1.08-21.15-11.07-69.38,20.85-71.32Z"/>
  <path d="M299.72,133.25c63.07-8.18,26.81,102.25-15.74,53.21-15.21-18.8-8.92-47.5,15.74-53.21Z"/>
  <path d="M137.12,327.82c-2.1-9.77,1.8-10.52,6.86-16.36,29.51-36.08,80.76-37.21,108.98,1,2.9,3.77,11.75,9.7,4.99,14.98-9.52,7.44-17.33-12.17-24.1-16.87-25.24-17.51-49.38-19.12-71.42,4.34-7.49,7.97-10.89,20.19-25.31,12.9Z"/>
  <path d="M172.06,327.87c3.54-17.61,30.84-17.35,44.26-11.76,3.29,1.41,13.87,8.9,8.7,12.4-1.71,1.16-34.23.36-39.59.4-4.8.04-8.27,2.45-13.38-1.05Z"/>
</svg>