<?xml version="1.0" encoding="UTF-8"?>
<svg id="_Слой_1" data-name="Слой_1" xmlns="http://www.w3.org/2000/svg" version="1.1" viewBox="0 0 90 140">
  <!-- Generator: Adobe Illustrator 29.8.3, SVG Export Plug-In . SVG Version: 2.1.1 Build 3)  -->
  <path d="M40.83.72c18.13-2.33,35.2,9.95,37.01,28.5,1.35,13.87-7.72,20.71-3.32,36.63,4.33,15.67,12.38,21.94,10.64,40.74C80.86,153.01-.15,151.11,4.82,96.48c1.42-15.66,14.27-27.93,12.11-44.71-.65-5.03-3.68-10.21-4.15-15.39C11.26,19.64,24.06,2.87,40.83.72ZM34.5,14.29c.73,5.19-1.24,10.55-5.44,13.75-5.23,3.99-6.87,1.4-4.62,10.42,6.54,26.24,46.19,16.83,41.59-9.74-6.68-1.19-13.42-1.28-19.73-4.16-5.04-2.3-8.18-6.32-11.8-10.27ZM77.2,89.59c-15.55.4-26.33-12.42-32.21-25.34-6.96,13.59-16.42,25.2-32.95,25.7,15.32,2.02,28.46-10.51,32.95-24.26,3.36,13.01,15.79,24.63,29.67,24.64.84,0,2.73.49,2.54-.74ZM51.62,120.47c1.2-1.16,1.97-4.12,2.77-4.83,1.71-1.5,6.43-.44,7.46-4.84,1.7-7.29-4.42-7.66-4.67-9.21-.49-3,2.46-6.25-2.86-9-4.58-2.37-5.43,1-8,1.22-1.59.14-6.99-5.17-11-.13-2.97,3.73-.41,6.3-.94,8.45-.3,1.24-2.82,2.35-3.35,4.63-1.16,4.99,1.69,8.74,6.74,8.93.91.03,2.42-.85,2.51-.76.17.17.56,3.15,1.57,4.6,2.29,3.32,6.92,3.7,9.78.94Z"/>
  <path d="M49.7,42.53c.61,8.08-9.92,7.75-9.42,0h9.42Z"/>
  <path d="M41.93,110.38c-4.72-4.72,1.88-13.58,7.79-8.15,6.04,5.55-2.97,12.97-7.79,8.15Z"/>
</svg>